<?xml version="1.0" encoding="UTF-8" standalone="no"?>
<!-- Uploaded to: SVG Repo, www.svgrepo.com, Generator: SVG Repo Mixer Tools -->

<svg
   width="516.66663"
   height="516.72693"
   viewBox="0 0 15.499999 15.501808">
  <path
     d="m 0,2.750031 c 0,0.41421 0.33579,0.75 0.75,0.75 0.41421,0 0.75,-0.33579 0.75,-0.75 z m 1.85,-1.111 -0.28549,-0.69354005 c -0.00917,0.00378 -0.01828,0.00774 -0.0273,0.01188 z M 4.783,0.90203095 4.85927,1.648141 c 0.0053,-5.4e-4 0.01059,-0.00114 0.01588,-0.00179 z m 2.5,-0.152 L 7.2817,1.500031 H 7.283 Z m 0.933,0 V 1.500031 h 0.0013 z m 2.5,0.152 -0.0921,0.74432005 c 0.0053,6.6e-4 0.0106,0.00126 0.0159,0.0018 z M 13.65,1.639031 13.9628,0.95737095 c -0.009,-0.00415 -0.0182,-0.00811 -0.0273,-0.01189 z m 0.35,1.111 c 0,0.41421 0.3358,0.75 0.75,0.75 0.4142,0 0.75,-0.33579 0.75,-0.75 z m -12.5,0 c 0,-0.41421 -0.33579,-0.75 -0.75,-0.75 -0.41421,0 -0.75,0.33579 -0.75,0.75 z m 1.164,1.414 -0.21937,0.7172 c 0.0071,0.00217 0.01424,0.00424 0.0214,0.0062 z m 4.619,0.586 v -0.75008 l -0.0111,1.6e-4 z m 0.933,0 0.0111,-0.75 H 8.216 Z m 4.62,-0.586 0.198,0.7234 c 0.0071,-0.00196 0.0143,-0.00403 0.0214,-0.0062 z m 2.664,-1.414 c 0,-0.41421 -0.3358,-0.75 -0.75,-0.75 -0.4142,0 -0.75,0.33579 -0.75,0.75 z m -14,0 c 0,-0.41421 -0.33579,-0.75 -0.75,-0.75 -0.41421,0 -0.75,0.33579 -0.75,0.75 z M 0,7.750001 c 0,0.4142 0.33579,0.75 0.75,0.75 0.41421,0 0.75,-0.3358 0.75,-0.75 z m 15.5,-4.99997 c 0,-0.41421 -0.3358,-0.75 -0.75,-0.75 -0.4142,0 -0.75,0.33579 -0.75,0.75 z M 14,7.750001 c 0,0.4142 0.3358,0.75 0.75,0.75 0.4142,0 0.75,-0.3358 0.75,-0.75 z m -12.5,0 c 0,-0.4142 -0.33579,-0.75 -0.75,-0.75 -0.41421,0 -0.75,0.3358 -0.75,0.75 z m 1.164,1.414 -0.21937,0.7172 c 0.0071,0.0022 0.01424,0.0043 0.0214,0.0062 z m 4.619,0.586 v -0.7501 l -0.0111,2e-4 z m 0.933,0 0.0111,-0.75 H 8.216 Z m 4.62,-0.586 0.198,0.7234 c 0.0071,-0.0019 0.0143,-0.004 0.0214,-0.0062 z m 2.664,-1.414 c 0,-0.4142 -0.3358,-0.75 -0.75,-0.75 -0.4142,0 -0.75,0.3358 -0.75,0.75 z m -14,0 c 0,-0.4142 -0.33579,-0.75 -0.75,-0.75 -0.41421,0 -0.75,0.3358 -0.75,0.75 z m 1.164,6.414 -0.21937,0.7172 c 0.0071,0.0022 0.01424,0.0043 0.0214,0.0062 z m 4.619,0.586 v -0.7501 l -0.0111,2e-4 z m 0.933,0 0.0111,-0.75 H 8.216 Z m 4.62,-0.586 0.198,0.7234 c 0.0071,-0.0019 0.0143,-0.004 0.0214,-0.0062 z m 2.664,-6.414 c 0,-0.4142 -0.3358,-0.75 -0.75,-0.75 -0.4142,0 -0.75,0.3358 -0.75,0.75 z m -14,-4.99997 c 0,0.05843 -0.03185,0.04215 0.06323,-0.05358 0.09886,-0.09952 0.28628,-0.23201 0.59956,-0.37576 L 1.53721,0.95737095 C 1.13349,1.142621 0.77091,1.365631 0.49902,1.639361 0.22335,1.916881 0,2.291601 0,2.750031 Z M 2.13549,2.332571 C 3.00569,1.974361 3.9231,1.743841 4.85927,1.648141 L 4.70673,0.15592095 c -1.07998,0.11039 -2.13833,0.37633 -3.14222,0.78957 z M 4.87515,1.646351 C 5.6735,1.547511 6.4773,1.498641 7.2817,1.500031 L 7.2843,3.0953674e-5 C 6.4174,-0.00145905 5.55121,0.05120095 4.69085,0.15771095 Z M 7.283,1.500031 H 8.216 V 3.0953674e-5 H 7.283 Z m 0.9343,0 c 0.8044,-0.00139 1.6082,0.04748 2.4066,0.14632 L 10.8081,0.15771095 C 9.9478,0.05120095 9.0816,-0.00145905 8.2147,3.0953674e-5 Z m 2.4225,0.14812 c 0.9365,0.09561 1.8542,0.32613 2.7247,0.68443 l 0.571,-1.38710005 c -1.0043,-0.41334 -2.063,-0.67928 -3.1433,-0.78957 z m 2.6974,0.67254 c 0.3133,0.14375 0.5007,0.27624 0.5996,0.37576 C 14.0319,2.792181 14,2.808461 14,2.750031 h 1.5 c 0,-0.45843 -0.2234,-0.83315 -0.499,-1.11067 -0.2719,-0.27373 -0.6345,-0.49674 -1.0382,-0.68199005 z M 0,2.750031 c 0,0.6136 0.396,1.06861 0.80149,1.36828 0.42021,0.31055 0.98775,0.56245 1.64314,0.76292 l 0.43874,-1.4344 C 2.31276,3.272291 1.9233,3.082201 1.69301,2.912001 1.448,2.730921 1.5,2.666431 1.5,2.750031 Z m 2.46603,2.1374 c 1.5725,0.43033 3.19788,0.63654 4.82807,0.61252 L 7.2719,4.000111 C 5.783,4.022051 4.29831,3.833701 2.86197,3.440631 Z m 4.81697,0.6126 h 0.933 v -1.5 H 7.283 Z m 0.9219,-8e-5 c 1.6305,0.02412 3.2562,-0.18209 4.8291,-0.61252 l -0.396,-1.4468 c -1.4366,0.39316 -2.9216,0.58151 -4.4109,0.55948 z m 4.8505,-0.61872 c 0.6551,-0.20039 1.2227,-0.452 1.643,-0.76243 C 15.1042,3.819001 15.5,3.363961 15.5,2.750031 H 14 c 0,-0.08293 0.0518,-0.01847 -0.1929,0.16223 -0.2302,0.17007 -0.6196,0.35996 -1.1905,0.53457 z M 0,2.750031 v 4.99997 h 1.5 v -4.99997 z m 14,0 v 4.99997 h 1.5 V 2.750031 Z M 0,7.750001 c 0,0.6136 0.396,1.0686 0.80149,1.3683 0.42021,0.3106 0.98775,0.5625 1.64314,0.7629 l 0.43874,-1.4344 C 2.31276,8.272301 1.9233,8.082201 1.69301,7.912001 1.448,7.730901 1.5,7.666401 1.5,7.750001 Z m 2.46603,2.1374 c 1.5725,0.4304 3.19788,0.6366 4.82807,0.6125 l -0.0222,-1.4998 c -1.4889,0.022 -2.97359,-0.1664 -4.40993,-0.5595 z m 4.81697,0.6126 h 0.933 v -1.5 H 7.283 Z m 0.9219,-10e-5 c 1.6305,0.0242 3.2562,-0.182 4.8291,-0.6125 l -0.396,-1.4468 c -1.4366,0.3932 -2.9216,0.5815 -4.4109,0.5595 z m 4.8505,-0.6187 c 0.6551,-0.2004 1.2227,-0.452 1.643,-0.7624 0.4058,-0.2998 0.8016,-0.7548 0.8016,-1.3688 H 14 c 0,-0.0829 0.0518,-0.0184 -0.1929,0.1623 -0.2302,0.17 -0.6196,0.3599 -1.1905,0.5345 z M 0,7.750001 v 5 h 1.5 v -5 z m 0,5 c 0,0.6136 0.396,1.0686 0.80149,1.3683 0.42021,0.3106 0.98775,0.5625 1.64314,0.7629 l 0.43874,-1.4344 C 2.31276,13.272301 1.9233,13.082201 1.69301,12.912001 1.448,12.730901 1.5,12.666401 1.5,12.750001 Z m 2.46603,2.1374 c 1.5725,0.4304 3.19788,0.6366 4.82807,0.6125 l -0.0222,-1.4998 c -1.4889,0.022 -2.97359,-0.1664 -4.40993,-0.5595 z m 4.81697,0.6126 h 0.933 v -1.5 H 7.283 Z m 0.9219,-10e-5 c 1.6305,0.0242 3.2562,-0.182 4.8291,-0.6125 l -0.396,-1.4468 c -1.4366,0.3932 -2.9216,0.5815 -4.4109,0.5595 z m 4.8505,-0.6187 c 0.6554,-0.2004 1.2229,-0.4523 1.6431,-0.7629 0.4055,-0.2997 0.8015,-0.7547 0.8015,-1.3683 H 14 c 0,-0.0836 0.052,-0.0191 -0.193,0.162 -0.2303,0.1702 -0.6198,0.3603 -1.1904,0.5348 z m 2.4446,-2.1312 v -5 H 14 v 5 z"/>
</svg>
