<?xml version="1.0" encoding="UTF-8" standalone="no"?>
<!-- Uploaded to: SVG Repo, www.svgrepo.com, Generator: SVG Repo Mixer Tools -->

<svg
   width="800"
   height="800"
   viewBox="0 0 20 20">
  <path
     d="m 18.0007,13 c 0,0.552 -0.447844,1 -0.99965,1 H 3.005948 C 2.454141,14 2.006298,13.552 2.006298,13 V 3 c 0,-0.552 0.447843,-1 0.99965,-1 H 17.00105 c 0.551806,0 0.99965,0.448 0.99965,1 z M 17.9907,0 H 1.996298 1.992298 C 0.888689,0 0,0.915 0,2.02 l 0.007,0.02 v 12 L 0,14.02 C 0,15.125 0.888689,16 1.992303,16 h 0.004 5.993902 v 2 H 4.991255 C 4.439448,18 4.0056,18.468 4.0056,19.02 v -0.01 c 0,0.552 0.433848,0.99 0.985655,0.99 h 9.996501 c 0.552807,0 1.013646,-0.428 1.013646,-0.98 v -0.01 c 0,-0.552 -0.460839,-1.01 -1.013646,-1.01 h -2.99895 v -2 h 6.001899 l 0.007,0.02 C 19.099315,16.02 20,15.146 20,14.043 v 0 -12 0 C 20,0.94 19.099315,0.026 17.997701,0.026 Z"/>
</svg>
