<?xml version="1.0" encoding="UTF-8" standalone="no"?>
<!-- Uploaded to: SVG Repo, www.svgrepo.com, Generator: SVG Repo Mixer Tools -->

<svg
   width="800"
   height="800"
   viewBox="0 0 399.387 399.387"><g
   id="g1"><path
   d="M 340.896,58.488 C 303.18,20.771 253.033,0 199.694,0 146.353,0 96.207,20.771 58.491,58.488 20.772,96.206 0,146.354 0,199.693 c 0,53.342 20.772,103.489 58.491,141.206 37.716,37.717 87.863,58.488 141.203,58.488 53.337,0 103.486,-20.771 141.203,-58.488 37.719,-37.718 58.49,-87.865 58.49,-141.206 0,-53.338 -20.772,-103.486 -58.491,-141.205 z M 199.694,77.457 c 67.402,0 122.236,54.835 122.236,122.236 0,67.401 -54.834,122.236 -122.236,122.236 -67.402,0 -122.237,-54.835 -122.237,-122.236 0,-67.401 54.835,-122.236 122.237,-122.236 z m 128.367,250.605 c -34.289,34.287 -79.877,53.17 -128.367,53.17 -48.491,0 -94.079,-18.883 -128.367,-53.17 C 37.038,293.775 18.154,248.185 18.154,199.692 h 41.148 c 0,77.411 62.979,140.391 140.392,140.391 77.412,0 140.39,-62.979 140.39,-140.391 0,-77.412 -62.979,-140.391 -140.39,-140.391 -4.594,0 -9.134,0.229 -13.615,0.662 v -41.31 c 4.508,-0.332 9.049,-0.5 13.615,-0.5 48.49,0 94.078,18.883 128.367,53.171 34.289,34.289 53.172,79.878 53.172,128.368 -10e-4,48.494 -18.883,94.083 -53.172,128.37 z"/></g></svg>
