<?xml version="1.0" encoding="UTF-8" standalone="no"?>
<!-- Uploaded to: SVG Repo, www.svgrepo.com, Generator: SVG Repo Mixer Tools -->

<svg
   width="666.66663"
   height="666.66663"
   viewBox="0 0 19.999999 19.999999">
  <path
     d="M 9.9863281,1.1920929e-7 A 1,1 0 0 0 9.9746081,0.00586012 C 4.4760244,0.02056912 1.1920929e-7,4.4980547 1.1920929e-7,10 1.1920929e-7,15.511031 4.4890102,20 10,20 a 1,1 0 0 0 0.0059,-0.002 1,1 0 0 0 0.0039,0 1,1 0 0 0 0.01563,-0.0039 C 15.524006,19.979431 20,15.501976 20,10 20,4.6254144 15.707977,0.29277082 10.384766,0.07812512 A 1,1 0 0 0 10.025391,0.00585952 1,1 0 0 0 10.009766,0.00195322 1,1 0 0 0 10,1.1920929e-7 1,1 0 0 0 9.9941001,0.00195012 a 1,1 0 0 0 -0.0039,0 A 1,1 0 0 0 9.9863281,1.1920929e-7 Z M 7.7988282,2.4433595 C 6.9863435,3.5870465 6.1867345,4.7274132 5.748047,6.0000001 H 3.2187501 C 4.2395175,4.2739905 5.8302646,3.015771 7.7988282,2.4433595 Z m 4.4023438,0 c 1.968572,0.5724108 3.559318,1.830631 4.580078,3.5566406 H 14.251953 C 13.813266,4.7274132 13.013657,3.5870465 12.201172,2.4433595 Z M 10,2.7246095 c 0.86718,1.0501082 1.64001,2.1235132 2.117188,3.2753906 H 7.8828126 C 8.3599901,4.8481227 9.1328201,3.7747177 10,2.7246095 Z M 2.4023438,8.0000001 H 5.2207032 C 5.1095921,8.6595421 5.0000001,9.3197581 5.0000001,10 c 0,0.680239 0.1095919,1.340462 0.2207031,2 H 2.4023438 C 2.2300294,11.345199 2.0000001,10.71018 2.0000001,10 c 0,-0.7101729 0.2300291,-1.3452019 0.4023437,-1.9999999 z m 5.0390626,0 H 12.558594 C 12.695011,8.6696701 13,9.3089971 13,10 c 0,0.690998 -0.304989,1.330335 -0.441406,2 H 7.4414064 C 7.3049893,11.330335 7.0000001,10.690998 7.0000001,10 c 0,-0.6910029 0.3049891,-1.3303299 0.4414063,-1.9999999 z m 7.3378906,0 h 2.818359 C 17.769969,8.6547981 18,9.2898261 18,10 c 0,0.710181 -0.230031,1.345198 -0.402344,2 H 14.779297 C 14.890408,11.340462 15,10.680239 15,10 15,9.3197581 14.890408,8.6595421 14.779297,8.0000001 Z M 3.2187501,14 H 5.748047 c 0.4386875,1.272581 1.2382982,2.412949 2.0507812,3.556641 C 5.8302636,16.984235 4.2395166,15.726009 3.2187501,14 Z m 4.6640625,0 H 12.117188 C 11.64001,15.151874 10.867183,16.225268 10,17.275391 9.1328171,16.225268 8.3599901,15.151874 7.8828126,14 Z m 6.3691404,0 h 2.529297 c -1.020759,1.726009 -2.611505,2.984235 -4.580078,3.556641 C 13.013655,16.412949 13.813266,15.272581 14.251953,14 Z"
     id="path3" />
</svg>
