<?xml version="1.0" encoding="UTF-8" standalone="no"?>
<!-- Uploaded to: SVG Repo, www.svgrepo.com, Generator: SVG Repo Mixer Tools -->

<svg
   width="666.66663"
   height="500"
   viewBox="-2 -4 20 15">
  <path
     d="M -0.99999998,-4.5 A 1.0001,1.0001 0 0 0 -2,-3.5 v 1 a 1.0001,1.0001 0 0 0 1.00000002,1 H 1.9482421e-8 A 1.0001,1.0001 0 0 0 1,-2.5 v -1 A 1.0001,1.0001 0 0 0 1.9482421e-8,-4.5 Z M 4,-4 a 1,1 0 0 0 -1,1 1,1 0 0 0 1,1 h 13 a 1,1 0 0 0 1,-1 1,1 0 0 0 -1,-1 z M -0.99999998,1.5 A 1.0001,1.0001 0 0 0 -2,2.5 v 1 a 1.0001,1.0001 0 0 0 1.00000002,1 H 1.9482421e-8 A 1.0001,1.0001 0 0 0 1,3.5 v -1 A 1.0001,1.0001 0 0 0 1.9482421e-8,1.5 Z M 4,2 A 1,1 0 0 0 3,3 1,1 0 0 0 4,4 H 17 A 1,1 0 0 0 18,3 1,1 0 0 0 17,2 Z M -0.99999998,7.5 A 1.0001,1.0001 0 0 0 -2,8.5 v 1 a 1.0001,1.0001 0 0 0 1.00000002,1 H 1.9482421e-8 A 1.0001,1.0001 0 0 0 1,9.5 v -1 A 1.0001,1.0001 0 0 0 1.9482421e-8,7.5 Z M 4,8 A 1,1 0 0 0 3,9 1,1 0 0 0 4,10 H 17 A 1,1 0 0 0 18,9 1,1 0 0 0 17,8 Z"
     id="path1" />
</svg>
