<?xml version="1.0" encoding="UTF-8" standalone="no"?>
<!-- Uploaded to: SVG Repo, www.svgrepo.com, Generator: SVG Repo Mixer Tools -->

<svg
   width="666.66656"
   height="666.66656"
   viewBox="0 0 20 20">
  <path
     d="M 10,0 C 4.489002,0 0,4.489002 0,10 0,15.511034 4.4890074,20 10,20 15.511028,20 20,15.511028 20,10 20,4.4890074 15.511034,0 10,0 Z m 0,2 c 4.430156,0 8,3.5698826 8,8 0,4.430162 -3.569838,8 -8,8 C 5.5698826,18 2,14.430156 2,10 2,5.5698879 5.5698879,2 10,2 Z m 0,1.5 a 1.000005,1.000005 0 0 0 -1,1 1.000005,1.000005 0 0 0 1,1 c 2.497162,0 4.5,2.0028672 4.5,4.5 a 1.000005,1.000005 0 0 0 1,1 1.000005,1.000005 0 0 0 1,-1 C 16.5,6.4219989 13.578032,3.5 10,3.5 Z M 10,7 c -1.645008,0 -3,1.354992 -3,3 0,1.645008 1.354992,3 3,3 1.645008,0 3,-1.354992 3,-3 C 13,8.354992 11.645008,7 10,7 Z M 4.5,9 a 1.000005,1.000005 0 0 0 -1,1 c 0,3.578032 2.9219989,6.5 6.5,6.5 a 1.000005,1.000005 0 0 0 1,-1 1.000005,1.000005 0 0 0 -1,-1 C 7.5028672,14.5 5.5,12.497162 5.5,10 A 1.000005,1.000005 0 0 0 4.5,9 Z M 10,9 c 0.56419,0 1,0.43581 1,1 0,0.56419 -0.43581,1 -1,1 C 9.43581,11 9,10.56419 9,10 9,9.43581 9.43581,9 10,9 Z"
     id="path1" />
</svg>
