<?xml version="1.0" encoding="UTF-8" standalone="no"?>
<!-- Uploaded to: SVG Repo, www.svgrepo.com, Generator: SVG Repo Mixer Tools -->

<svg
   width="562.90002"
   height="600.10443"
   viewBox="0 0 16 14">
    <path
       d="M 8,2 A 2.84,2.84 0 0 0 6.88,2.221 C 6.535,2.362 6.229,2.569 5.974,2.836 V 2.839 L 5.973,2.841 C 5.725,3.11 5.533,3.433 5.399,3.801 5.262,4.168 5.196,4.57 5.196,5.001 c 0,0.435 0.065,0.841 0.203,1.209 0.135,0.361 0.327,0.68 0.574,0.95 l 0.001,0.002 c 0.254,0.267 0.558,0.477 0.901,0.624 v 0.003 c 0.346,0.141 0.723,0.21 1.12,0.21 0.395,0 0.77,-0.069 1.117,-0.21 V 7.787 C 9.455,7.64 9.756,7.43 10.004,7.162 10.259,6.894 10.454,6.572 10.59,6.21 10.728,5.842 10.794,5.436 10.794,5 h 0.01 c 0,-0.43 -0.065,-0.831 -0.203,-1.198 A 2.771,2.771 0 0 0 10.016,2.839 2.5,2.5 0 0 0 9.119,2.221 2.835,2.835 0 0 0 7.999,2 Z m 0.024,8.002 c -2.317,0 -3.561,0.213 -4.486,0.91 C 3.076,11.262 2.771,11.737 2.599,12.29 2.427,12.843 2.373,13.265 2.371,14 L 8,14.002 h 5.629 C 13.628,13.266 13.577,12.843 13.404,12.29 13.232,11.737 12.927,11.263 12.464,10.914 11.541,10.217 10.34,10.002 8.024,10.002 Z"
       overflow="visible"
       id="path2" />
</svg>
